# Blender 3.3.0
# www.blender.org
mtllib wire.mtl
o Cylinder
v -0.399535 0.046670 -0.442606
v -0.308809 0.045464 -0.434102
v -0.221570 0.044305 -0.408915
v -0.141170 0.043237 -0.368014
v -0.070699 0.042301 -0.312970
v -0.012864 0.041532 -0.245899
v 0.030110 0.040961 -0.169378
v 0.056574 0.040610 -0.086348
v 0.065510 0.040491 0.000000
v 0.056574 0.040610 0.086348
v 0.030110 0.040961 0.169378
v -0.012864 0.041532 0.245899
v -0.070699 0.042301 0.312970
v -0.141170 0.043237 0.368014
v -0.221570 0.044305 0.408915
v -0.308809 0.045464 0.434102
v -0.399535 0.046670 0.442606
v -0.490260 0.047875 0.434102
v -0.577499 0.049034 0.408915
v -0.657899 0.050103 0.368014
v -0.728371 0.051039 0.312970
v -0.786205 0.051808 0.245899
v -0.829179 0.052379 0.169378
v -0.855643 0.052730 0.086348
v -0.864579 0.052849 0.000000
v -0.855643 0.052730 -0.086348
v -0.829179 0.052379 -0.169378
v -0.786205 0.051808 -0.245899
v -0.728371 0.051039 -0.312970
v -0.657899 0.050103 -0.368014
v -0.577499 0.049034 -0.408915
v -0.490260 0.047875 -0.434102
v 0.397416 -2.539795 -0.442606
v 0.488142 -2.541001 -0.434102
v 0.575381 -2.542160 -0.408915
v 0.655781 -2.543228 -0.368014
v 0.726252 -2.544165 -0.312970
v 0.784087 -2.544933 -0.245899
v 0.827061 -2.545504 -0.169378
v 0.853525 -2.545856 -0.086348
v 0.862461 -2.545975 0.000000
v 0.853525 -2.545856 0.086348
v 0.827061 -2.545504 0.169378
v 0.784087 -2.544933 0.245899
v 0.726252 -2.544165 0.312970
v 0.655781 -2.543228 0.368014
v 0.575381 -2.542160 0.408915
v 0.488142 -2.541001 0.434102
v 0.397416 -2.539795 0.442606
v 0.306691 -2.538590 0.434102
v 0.219452 -2.537431 0.408915
v 0.139052 -2.536363 0.368014
v 0.068580 -2.535426 0.312970
v 0.010746 -2.534658 0.245899
v -0.032228 -2.534087 0.169378
v -0.058692 -2.533735 0.086348
v -0.067628 -2.533617 0.000000
v -0.058692 -2.533735 -0.086348
v -0.032228 -2.534087 -0.169378
v 0.010746 -2.534658 -0.245899
v 0.068580 -2.535426 -0.312970
v 0.139052 -2.536363 -0.368014
v 0.219452 -2.537431 -0.408915
v 0.306691 -2.538590 -0.434102
vn 0.0937 0.0289 -0.9952
vn 0.2774 0.0855 -0.9569
vn 0.4505 0.1388 -0.8819
vn 0.6063 0.1868 -0.7730
vn 0.7387 0.2276 -0.6344
vn 0.8428 0.2597 -0.4714
vn 0.9145 0.2818 -0.2903
vn 0.9511 0.2930 -0.0980
vn 0.9511 0.2930 0.0980
vn 0.9145 0.2818 0.2903
vn 0.8428 0.2597 0.4714
vn 0.7387 0.2276 0.6344
vn 0.6063 0.1868 0.7730
vn 0.4505 0.1388 0.8819
vn 0.2774 0.0855 0.9569
vn 0.0937 0.0289 0.9952
vn -0.0937 -0.0289 0.9952
vn -0.2774 -0.0855 0.9569
vn -0.4505 -0.1388 0.8819
vn -0.6063 -0.1868 0.7730
vn -0.7387 -0.2276 0.6344
vn -0.8428 -0.2597 0.4714
vn -0.9145 -0.2818 0.2903
vn -0.9511 -0.2930 0.0980
vn -0.9511 -0.2930 -0.0980
vn -0.9145 -0.2818 -0.2903
vn -0.8428 -0.2597 -0.4714
vn -0.7387 -0.2276 -0.6344
vn -0.6063 -0.1868 -0.7730
vn -0.4505 -0.1388 -0.8819
vn -0.2774 -0.0855 -0.9569
vn -0.0937 -0.0289 -0.9952
vn 0.0133 0.9999 -0.0000
vn -0.0133 -0.9999 -0.0000
vt 1.000000 0.976138
vt 0.000000 0.976138
vt 0.202319 0.569674
vt 0.968750 0.971493
vt 0.213613 0.570737
vt 0.937500 0.967027
vt 0.224473 0.573886
vt 0.906250 0.962911
vt 0.234482 0.578998
vt 0.875000 0.959304
vt 0.243255 0.585879
vt 0.843750 0.956343
vt 0.250455 0.594263
vt 0.812500 0.954143
vt 0.255805 0.603828
vt 0.781250 0.952788
vt 0.259099 0.614206
vt 0.750000 0.952331
vt 0.260211 0.625000
vt 0.718750 0.952788
vt 0.259099 0.635794
vt 0.687500 0.954143
vt 0.255805 0.646172
vt 0.656250 0.956343
vt 0.250455 0.655737
vt 0.625000 0.959304
vt 0.243255 0.664121
vt 0.593750 0.962911
vt 0.234482 0.671002
vt 0.562500 0.967027
vt 0.224473 0.676114
vt 0.531250 0.971493
vt 0.213613 0.679263
vt 0.500000 0.976138
vt 0.202319 0.680326
vt 0.468750 0.980782
vt 0.191024 0.679263
vt 0.437500 0.985249
vt 0.180164 0.676114
vt 0.406250 0.989365
vt 0.170155 0.671002
vt 0.375000 0.992972
vt 0.161383 0.664121
vt 0.343750 0.995933
vt 0.154183 0.655737
vt 0.312500 0.998133
vt 0.148833 0.646172
vt 0.281250 0.999488
vt 0.145539 0.635794
vt 0.250000 0.999945
vt 0.144426 0.625000
vt 0.218750 0.999488
vt 0.145539 0.614207
vt 0.187500 0.998133
vt 0.148833 0.603828
vt 0.156250 0.995933
vt 0.154183 0.594263
vt 0.125000 0.992972
vt 0.161383 0.585879
vt 0.093750 0.989364
vt 0.170155 0.578998
vt 0.062500 0.985249
vt 0.180164 0.573886
vt 0.031250 0.980782
vt 0.191024 0.570737
vt 1.000000 0.525061
vt 0.000000 0.525061
vt 0.702572 0.569674
vt 0.968750 0.520416
vt 0.691277 0.570737
vt 0.937500 0.515950
vt 0.680417 0.573886
vt 0.906250 0.511834
vt 0.670408 0.578998
vt 0.875000 0.508227
vt 0.661635 0.585879
vt 0.843750 0.505266
vt 0.654436 0.594263
vt 0.812500 0.503066
vt 0.649086 0.603828
vt 0.781250 0.501711
vt 0.645791 0.614207
vt 0.750000 0.501254
vt 0.644679 0.625000
vt 0.718750 0.501711
vt 0.645791 0.635794
vt 0.687500 0.503066
vt 0.649086 0.646172
vt 0.656250 0.505266
vt 0.654436 0.655737
vt 0.625000 0.508227
vt 0.661635 0.664121
vt 0.593750 0.511834
vt 0.670408 0.671002
vt 0.562500 0.515950
vt 0.680417 0.676114
vt 0.531250 0.520416
vt 0.691277 0.679263
vt 0.500000 0.525061
vt 0.702572 0.680326
vt 0.468750 0.529706
vt 0.713866 0.679263
vt 0.437500 0.534172
vt 0.724726 0.676114
vt 0.406250 0.538288
vt 0.734735 0.671002
vt 0.375000 0.541895
vt 0.743508 0.664121
vt 0.343750 0.544856
vt 0.750708 0.655737
vt 0.312500 0.547056
vt 0.756057 0.646172
vt 0.281250 0.548411
vt 0.759352 0.635794
vt 0.250000 0.548868
vt 0.760464 0.625000
vt 0.218750 0.548411
vt 0.759352 0.614206
vt 0.187500 0.547056
vt 0.756057 0.603828
vt 0.156250 0.544856
vt 0.750707 0.594263
vt 0.125000 0.541895
vt 0.743508 0.585879
vt 0.093750 0.538288
vt 0.734735 0.578998
vt 0.062500 0.534172
vt 0.724726 0.573886
vt 0.031250 0.529706
vt 0.713866 0.570737
s 0
usemtl 
f 2/4/1 33/66/1 1/1/1
f 3/6/2 34/69/2 2/4/2
f 4/8/3 35/71/3 3/6/3
f 5/10/4 36/73/4 4/8/4
f 37/75/5 6/12/5 38/77/5
f 38/77/6 7/14/6 39/79/6
f 39/79/7 8/16/7 40/81/7
f 40/81/8 9/18/8 41/83/8
f 9/18/9 42/85/9 41/83/9
f 10/20/10 43/87/10 42/85/10
f 11/22/11 44/89/11 43/87/11
f 12/24/12 45/91/12 44/89/12
f 13/26/13 46/93/13 45/91/13
f 14/28/14 47/95/14 46/93/14
f 15/30/15 48/97/15 47/95/15
f 16/32/16 49/99/16 48/97/16
f 17/34/17 50/101/17 49/99/17
f 18/36/18 51/103/18 50/101/18
f 19/38/19 52/105/19 51/103/19
f 20/40/20 53/107/20 52/105/20
f 21/42/21 54/109/21 53/107/21
f 22/44/22 55/111/22 54/109/22
f 23/46/23 56/113/23 55/111/23
f 24/48/24 57/115/24 56/113/24
f 57/115/25 26/52/25 58/117/25
f 58/117/26 27/54/26 59/119/26
f 59/119/27 28/56/27 60/121/27
f 60/121/28 29/58/28 61/123/28
f 30/60/29 61/123/29 29/58/29
f 31/62/30 62/125/30 30/60/30
f 32/64/31 63/127/31 31/62/31
f 1/2/32 64/129/32 32/64/32
f 10/21/33 2/5/33 26/53/33
f 49/100/34 57/116/34 33/68/34
f 2/4/1 34/69/1 33/66/1
f 3/6/2 35/71/2 34/69/2
f 4/8/3 36/73/3 35/71/3
f 5/10/4 37/75/4 36/73/4
f 37/75/5 5/10/5 6/12/5
f 38/77/6 6/12/6 7/14/6
f 39/79/7 7/14/7 8/16/7
f 40/81/8 8/16/8 9/18/8
f 9/18/9 10/20/9 42/85/9
f 10/20/10 11/22/10 43/87/10
f 11/22/11 12/24/11 44/89/11
f 12/24/12 13/26/12 45/91/12
f 13/26/13 14/28/13 46/93/13
f 14/28/14 15/30/14 47/95/14
f 15/30/15 16/32/15 48/97/15
f 16/32/16 17/34/16 49/99/16
f 17/34/17 18/36/17 50/101/17
f 18/36/18 19/38/18 51/103/18
f 19/38/19 20/40/19 52/105/19
f 20/40/20 21/42/20 53/107/20
f 21/42/21 22/44/21 54/109/21
f 22/44/22 23/46/22 55/111/22
f 23/46/23 24/48/23 56/113/23
f 24/48/24 25/50/24 57/115/24
f 57/115/25 25/50/25 26/52/25
f 58/117/26 26/52/26 27/54/26
f 59/119/27 27/54/27 28/56/27
f 60/121/28 28/56/28 29/58/28
f 30/60/29 62/125/29 61/123/29
f 31/62/30 63/127/30 62/125/30
f 32/64/31 64/129/31 63/127/31
f 1/2/32 33/67/32 64/129/32
f 26/53/33 25/51/33 24/49/33
f 24/49/33 23/47/33 22/45/33
f 22/45/33 21/43/33 20/41/33
f 20/41/33 19/39/33 18/37/33
f 18/37/33 17/35/33 16/33/33
f 16/33/33 15/31/33 14/29/33
f 14/29/33 13/27/33 12/25/33
f 12/25/33 11/23/33 10/21/33
f 10/21/33 9/19/33 8/17/33
f 8/17/33 7/15/33 6/13/33
f 6/13/33 5/11/33 4/9/33
f 4/9/33 3/7/33 2/5/33
f 2/5/33 1/3/33 32/65/33
f 32/65/33 31/63/33 30/61/33
f 30/61/33 29/59/33 28/57/33
f 28/57/33 27/55/33 26/53/33
f 26/53/33 24/49/33 22/45/33
f 22/45/33 20/41/33 18/37/33
f 18/37/33 16/33/33 14/29/33
f 14/29/33 12/25/33 10/21/33
f 10/21/33 8/17/33 6/13/33
f 6/13/33 4/9/33 2/5/33
f 2/5/33 32/65/33 30/61/33
f 30/61/33 28/57/33 26/53/33
f 26/53/33 22/45/33 18/37/33
f 18/37/33 14/29/33 10/21/33
f 10/21/33 6/13/33 2/5/33
f 2/5/33 30/61/33 26/53/33
f 26/53/33 18/37/33 10/21/33
f 33/68/34 34/70/34 35/72/34
f 35/72/34 36/74/34 37/76/34
f 37/76/34 38/78/34 39/80/34
f 39/80/34 40/82/34 41/84/34
f 41/84/34 42/86/34 43/88/34
f 43/88/34 44/90/34 45/92/34
f 45/92/34 46/94/34 47/96/34
f 47/96/34 48/98/34 49/100/34
f 49/100/34 50/102/34 51/104/34
f 51/104/34 52/106/34 53/108/34
f 53/108/34 54/110/34 55/112/34
f 55/112/34 56/114/34 57/116/34
f 57/116/34 58/118/34 59/120/34
f 59/120/34 60/122/34 61/124/34
f 61/124/34 62/126/34 63/128/34
f 63/128/34 64/130/34 33/68/34
f 33/68/34 35/72/34 37/76/34
f 37/76/34 39/80/34 41/84/34
f 41/84/34 43/88/34 45/92/34
f 45/92/34 47/96/34 49/100/34
f 49/100/34 51/104/34 53/108/34
f 53/108/34 55/112/34 57/116/34
f 57/116/34 59/120/34 61/124/34
f 61/124/34 63/128/34 33/68/34
f 33/68/34 37/76/34 41/84/34
f 41/84/34 45/92/34 49/100/34
f 49/100/34 53/108/34 57/116/34
f 57/116/34 61/124/34 33/68/34
f 33/68/34 41/84/34 49/100/34
